<svg xmlns="http://www.w3.org/2000/svg" width="1920" height="1200" viewBox="0 0 1920 1200" fill="none">
  <defs>
    <linearGradient id="sky" x1="920" y1="0" x2="1000" y2="1200" gradientUnits="userSpaceOnUse"><stop stop-color="#EADDE7"/><stop offset=".42" stop-color="#B9D7DB"/><stop offset=".76" stop-color="#F1C6B2"/><stop offset="1" stop-color="#886F83"/></linearGradient>
    <radialGradient id="sun" cx="0" cy="0" r="1" gradientTransform="translate(1140 360) rotate(90) scale(390)"><stop stop-color="#FFF9E7" stop-opacity=".95"/><stop offset=".25" stop-color="#FFD9C0" stop-opacity=".52"/><stop offset="1" stop-color="#FECBC2" stop-opacity="0"/></radialGradient>
    <linearGradient id="water" x1="960" y1="610" x2="960" y2="1200" gradientUnits="userSpaceOnUse"><stop stop-color="#88B8BD"/><stop offset="1" stop-color="#485E70"/></linearGradient>
    <pattern id="grid" width="100" height="100" patternUnits="userSpaceOnUse"><path d="M100 0H0V100" stroke="#3D5160" stroke-opacity=".12" stroke-width="3"/></pattern>
    <filter id="blur"><feGaussianBlur stdDeviation="28"/></filter>
  </defs>
  <rect width="1920" height="1200" fill="url(#sky)"/>
  <ellipse cx="1140" cy="360" rx="410" ry="390" fill="url(#sun)"/>
  <path d="M0 620 216 491l159 68 202-177 182 172 187-260 158 246 169-131 143 145 195-70 309 146v570H0V620Z" fill="#405466" fill-opacity=".48"/>
  <path d="M0 690c301-67 511-56 732 10 219 66 430 58 604-2 210-72 391-77 584-8v510H0V690Z" fill="url(#water)"/>
  <path d="M0 690c301-67 511-56 732 10 219 66 430 58 604-2 210-72 391-77 584-8" stroke="#EAF8F4" stroke-opacity=".56" stroke-width="5"/>
  <g stroke="#F9E6D0" stroke-opacity=".25" stroke-width="3"><path d="M189 779h482M740 839h617M1210 742h516M312 974h1220"/><path d="m960 687-284 513M960 687l284 513"/></g>
  <path d="M727 578h466l-76 115H803l-76-115Z" fill="#526475" fill-opacity=".8" stroke="#F8E6DA" stroke-opacity=".45" stroke-width="3"/>
  <path d="M807 578V370h306v208M848 370v208M960 370v208M1072 370v208" stroke="#526475" stroke-width="16"/>
  <rect x="807" y="370" width="306" height="208" fill="url(#grid)"/>
  <ellipse cx="960" cy="1050" rx="580" ry="120" fill="#F9B8C5" fill-opacity=".16" filter="url(#blur)"/>
  <g fill="#FFF8EA" fill-opacity=".72"><circle cx="235" cy="289" r="3"/><circle cx="451" cy="166" r="4"/><circle cx="1515" cy="270" r="3"/><circle cx="1692" cy="441" r="4"/><circle cx="1337" cy="151" r="2"/></g>
</svg>
