<svg xmlns="http://www.w3.org/2000/svg" width="1920" height="1200" viewBox="0 0 1920 1200" fill="none">
  <defs>
    <linearGradient id="sky" x1="960" y1="0" x2="960" y2="1200" gradientUnits="userSpaceOnUse">
      <stop stop-color="#1D2434"/><stop offset=".44" stop-color="#34404B"/><stop offset=".72" stop-color="#18242B"/><stop offset="1" stop-color="#080D13"/>
    </linearGradient>
    <radialGradient id="moon" cx="0" cy="0" r="1" gradientTransform="translate(960 350) rotate(90) scale(250)">
      <stop stop-color="#EAF9F5" stop-opacity=".96"/><stop offset=".28" stop-color="#9FD7CF" stop-opacity=".4"/><stop offset="1" stop-color="#72D9CF" stop-opacity="0"/>
    </radialGradient>
    <linearGradient id="road" x1="960" y1="630" x2="960" y2="1200" gradientUnits="userSpaceOnUse">
      <stop stop-color="#2A383B"/><stop offset="1" stop-color="#071014"/>
    </linearGradient>
    <pattern id="window-grid" width="88" height="88" patternUnits="userSpaceOnUse">
      <path d="M88 0H0V88" stroke="#DAF3EE" stroke-opacity=".16" stroke-width="4"/>
    </pattern>
    <pattern id="rain" width="92" height="80" patternUnits="userSpaceOnUse" patternTransform="skewX(-12)">
      <path d="M18 4v20M62 39v13" stroke="#D6F8F4" stroke-opacity=".18" stroke-width="2" stroke-linecap="round"/>
    </pattern>
    <filter id="soft"><feGaussianBlur stdDeviation="22"/></filter>
    <filter id="glow"><feGaussianBlur stdDeviation="8"/></filter>
  </defs>
  <rect width="1920" height="1200" fill="url(#sky)"/>
  <circle cx="960" cy="350" r="250" fill="url(#moon)"/>
  <circle cx="960" cy="350" r="116" fill="#BEE4DF" fill-opacity=".12" stroke="#D4F4F0" stroke-opacity=".22" stroke-width="3"/>
  <path d="M0 0h1920v610H0z" fill="url(#window-grid)" opacity=".74"/>
  <path d="M0 0h1920v1200H0z" fill="url(#rain)"/>
  <path d="M0 646c213-76 407-126 650-85 112 19 201 59 310 57 118-2 213-53 338-70 241-34 434 34 622 104v548H0V646Z" fill="#10191D" fill-opacity=".76"/>
  <path d="M0 700 354 554l88 64 154-82 101 54 133-32 130 72 132-72 130 32 101-54 154 82 88-64L1920 700v500H0V700Z" fill="#172428"/>
  <path d="M684 640h552l323 560H361L684 640Z" fill="url(#road)"/>
  <path d="m944 640-130 560M976 640l130 560" stroke="#A5E9DF" stroke-opacity=".18" stroke-width="5"/>
  <path d="M720 625h480M589 763h742M464 990h992" stroke="#9DD8D1" stroke-opacity=".08" stroke-width="3"/>
  <g fill="#F8D28B" filter="url(#glow)"><circle cx="635" cy="692" r="18"/><circle cx="1285" cy="692" r="18"/><circle cx="498" cy="811" r="14"/><circle cx="1422" cy="811" r="14"/></g>
  <g fill="#FFE3A8"><circle cx="635" cy="692" r="6"/><circle cx="1285" cy="692" r="6"/><circle cx="498" cy="811" r="5"/><circle cx="1422" cy="811" r="5"/></g>
  <path d="M923 769c0-54 17-88 37-88s37 34 37 88v111h-74V769Z" fill="#091115"/>
  <circle cx="960" cy="662" r="28" fill="#0B1418"/>
  <path d="M929 711c17-14 47-14 64 0l19 181H910l19-181Z" fill="#0A1115"/>
  <ellipse cx="960" cy="1100" rx="640" ry="170" fill="#32BFB2" fill-opacity=".08" filter="url(#soft)"/>
  <rect width="1920" height="1200" fill="url(#rain)" opacity=".7"/>
</svg>
